<?xml version="1.0" standalone="no"?>
<!DOCTYPE svg PUBLIC "-//W3C//DTD SVG 20010904//EN"
 "http://www.w3.org/TR/2001/REC-SVG-20010904/DTD/svg10.dtd">
<svg version="1.0" xmlns="http://www.w3.org/2000/svg"
 width="20.000000pt" height="20.000000pt" viewBox="0 0 200.000000 200.000000"
 preserveAspectRatio="xMidYMid meet">

<g transform="translate(0.000000,200.000000) scale(0.100000,-0.100000)"
fill="#000000" stroke="none">
<path d="M860 1624 c-281 -60 -501 -332 -500 -618 1 -282 170 -517 442 -614
63 -22 89 -26 193 -26 103 0 131 4 201 27 193 64 349 220 409 409 14 44 25 89
24 101 0 12 -9 -11 -19 -50 -33 -125 -76 -199 -170 -293 -135 -135 -258 -185
-450 -184 -98 1 -126 5 -190 28 -101 36 -171 79 -244 151 -335 331 -194 905
259 1048 99 31 271 31 370 0 194 -61 357 -226 415 -421 12 -39 26 -114 30
-165 l9 -92 -4 95 c-9 248 -146 457 -369 561 -120 56 -271 72 -406 43z"/>
<path d="M975 1535 c0 -42 2 -45 26 -45 30 0 49 17 49 45 0 28 -19 45 -49 45
-24 0 -26 -3 -26 -45z m53 19 c13 -24 3 -54 -19 -54 -15 0 -19 7 -19 35 0 38
22 48 38 19z"/>
<path d="M898 1525 c2 -25 8 -45 13 -45 6 0 8 20 7 45 -2 25 -8 45 -13 45 -6
0 -9 -19 -7 -45z"/>
<path d="M1092 1544 c-1 -14 -6 -33 -12 -43 -8 -16 -5 -20 17 -24 35 -7 54 2
51 22 -1 9 1 22 6 30 6 9 3 18 -9 28 -30 21 -50 16 -53 -13z m43 -4 c-3 -5
-10 -10 -16 -10 -5 0 -9 5 -9 10 0 6 7 10 16 10 8 0 12 -4 9 -10z m-5 -41 c0
-5 -7 -9 -15 -9 -15 0 -20 12 -9 23 8 8 24 -1 24 -14z"/>
<path d="M806 1542 c-7 -12 15 -82 27 -82 5 0 6 8 2 18 -19 44 -18 62 3 62 26
0 38 -35 21 -58 -12 -16 -12 -16 5 0 29 26 14 68 -24 68 -16 0 -31 -4 -34 -8z"/>
<path d="M1175 1520 c-4 -16 -11 -32 -16 -35 -14 -9 -11 -25 5 -25 8 0 16 8
19 18 3 13 6 11 11 -10 7 -24 46 -47 46 -27 0 5 7 9 16 9 8 0 13 4 10 9 -3 5
0 11 8 14 12 5 13 1 1 -26 -13 -32 -12 -32 30 -64 40 -30 43 -31 48 -13 9 35
26 22 20 -15 -7 -43 0 -43 43 -6 26 24 30 32 20 40 -10 9 -15 7 -19 -9 -3 -11
-10 -20 -16 -20 -7 0 -9 10 -5 25 3 14 3 32 0 41 -5 13 -11 10 -32 -15 -14
-17 -30 -31 -35 -31 -16 0 -10 20 15 45 16 16 20 27 13 34 -7 7 -16 2 -29 -19
-10 -17 -23 -30 -29 -30 -10 0 -9 20 7 73 8 24 -12 21 -52 -9 -30 -24 -34 -25
-40 -9 -5 11 -1 21 9 27 25 13 21 33 -8 46 -34 16 -32 16 -40 -18z m45 -11 c0
-5 -7 -9 -15 -9 -9 0 -12 6 -9 15 6 15 24 11 24 -6z"/>
<path d="M758 1504 c15 -10 22 -24 20 -37 -4 -32 -32 -27 -43 9 -6 17 -15 29
-23 26 -9 -3 -7 -11 8 -32 11 -15 20 -33 20 -39 0 -7 8 -7 25 1 41 18 30 88
-14 88 -11 0 -8 -5 7 -16z"/>
<path d="M945 1500 c-3 -5 -1 -10 4 -10 6 0 11 5 11 10 0 6 -2 10 -4 10 -3 0
-8 -4 -11 -10z"/>
<path d="M645 1460 c-4 -6 1 -7 11 -3 12 4 24 -3 41 -23 15 -20 23 -24 23 -13
0 33 -59 64 -75 39z"/>
<path d="M630 1435 c0 -18 30 -55 45 -55 8 0 17 5 21 12 5 7 3 8 -6 3 -9 -6
-21 1 -37 21 -12 16 -23 24 -23 19z"/>
<path d="M918 1433 c6 -2 18 -2 25 0 6 3 1 5 -13 5 -14 0 -19 -2 -12 -5z"/>
<path d="M1053 1433 c9 -2 23 -2 30 0 6 3 -1 5 -18 5 -16 0 -22 -2 -12 -5z"/>
<path d="M586 1404 c-9 -8 -16 -22 -16 -29 0 -19 28 -45 49 -45 25 0 47 28 34
41 -8 8 -11 6 -10 -7 2 -24 -26 -29 -47 -9 -22 22 -20 34 6 44 13 5 17 10 11
14 -6 4 -19 0 -27 -9z"/>
<path d="M704 1328 l-19 -23 23 19 c21 18 27 26 19 26 -2 0 -12 -10 -23 -22z"/>
<path d="M1310 1308 c24 -27 45 -48 47 -48 8 0 0 9 -44 50 l-48 45 45 -47z"/>
<path d="M956 1305 c-4 -11 6 -23 30 -37 21 -13 37 -31 40 -47 4 -16 17 -31
37 -41 26 -12 33 -22 35 -51 2 -25 -3 -40 -16 -52 -17 -16 -18 -22 -8 -57 15
-51 19 -54 71 -55 24 -1 51 -8 60 -15 17 -14 20 -81 4 -97 -8 -8 -6 -18 6 -37
10 -15 15 -37 13 -51 -3 -14 -3 -25 -1 -25 3 0 27 19 55 43 27 23 64 54 81 69
l32 26 -24 26 c-15 16 -22 32 -18 46 3 11 1 20 -4 20 -5 0 -9 8 -9 18 0 10 -5
23 -11 29 -8 8 -6 19 5 42 16 31 16 31 -11 42 -81 32 -92 40 -130 96 -53 78
-120 123 -183 123 -34 0 -50 -5 -54 -15z"/>
<path d="M654 1278 l-19 -23 23 19 c21 18 27 26 19 26 -2 0 -12 -10 -23 -22z"/>
<path d="M850 1130 c0 -5 5 -10 10 -10 6 0 10 5 10 10 0 6 -4 10 -10 10 -5 0
-10 -4 -10 -10z"/>
<path d="M1026 1131 c-4 -5 -2 -12 3 -15 5 -4 12 -2 15 3 4 5 2 12 -3 15 -5 4
-12 2 -15 -3z"/>
<path d="M561 1074 c0 -11 3 -14 6 -6 3 7 2 16 -1 19 -3 4 -6 -2 -5 -13z"/>
<path d="M730 1075 c0 -8 5 -15 10 -15 6 0 10 7 10 15 0 8 -4 15 -10 15 -5 0
-10 -7 -10 -15z"/>
<path d="M1432 1055 c0 -16 2 -22 5 -12 2 9 2 23 0 30 -3 6 -5 -1 -5 -18z"/>
<path d="M880 964 c0 -8 5 -12 10 -9 6 3 10 10 10 16 0 5 -4 9 -10 9 -5 0 -10
-7 -10 -16z"/>
<path d="M727 954 c-14 -14 -7 -35 11 -32 9 2 17 10 17 17 0 16 -18 25 -28 15z"/>
<path d="M1432 940 c0 -14 2 -19 5 -12 2 6 2 18 0 25 -3 6 -5 1 -5 -13z"/>
<path d="M562 930 c0 -14 2 -19 5 -12 2 6 2 18 0 25 -3 6 -5 1 -5 -13z"/>
<path d="M1045 920 c-3 -5 1 -10 9 -10 9 0 16 5 16 10 0 6 -4 10 -9 10 -6 0
-13 -4 -16 -10z"/>
<path d="M1150 900 c0 -5 5 -10 10 -10 6 0 10 5 10 10 0 6 -4 10 -10 10 -5 0
-10 -4 -10 -10z"/>
<path d="M1421 884 c0 -11 3 -14 6 -6 3 7 2 16 -1 19 -3 4 -6 -2 -5 -13z"/>
<path d="M478 876 c-21 -5 -38 -13 -38 -17 0 -4 16 -3 36 3 40 11 41 11 46
-16 2 -15 -5 -22 -34 -31 -29 -8 -35 -13 -28 -25 6 -9 10 -10 10 -3 0 18 61
28 72 12 11 -17 1 23 -16 61 -10 24 -14 25 -48 16z"/>
<path d="M1540 870 c0 -5 5 -10 10 -10 6 0 10 5 10 10 0 6 -4 10 -10 10 -5 0
-10 -4 -10 -10z"/>
<path d="M1010 826 c0 -8 4 -17 9 -20 11 -7 33 18 24 27 -12 12 -33 7 -33 -7z"/>
<path d="M1431 776 c-17 -35 -31 -66 -31 -70 0 -13 19 -5 22 10 2 13 8 11 32
-11 22 -21 31 -24 37 -13 11 17 11 31 1 24 -5 -3 -21 4 -37 14 -25 16 -26 20
-12 26 9 3 14 11 10 17 -4 6 9 2 29 -10 l36 -21 11 24 c15 33 14 40 -5 58 -33
34 -59 20 -93 -48z m87 17 c3 -21 1 -22 -27 -12 -17 6 -31 14 -31 18 0 31 54
25 58 -6z"/>
<path d="M687 814 c-8 -8 1 -24 14 -24 5 0 9 7 9 15 0 15 -12 20 -23 9z"/>
<path d="M866 793 c-11 -11 -6 -23 9 -23 8 0 15 4 15 9 0 13 -16 22 -24 14z"/>
<path d="M537 753 c-4 -3 -7 -17 -7 -30 0 -12 -4 -23 -10 -23 -9 0 -14 15 -11
33 1 5 -3 6 -9 2 -16 -10 8 -47 28 -43 10 2 18 15 20 31 2 17 8 26 15 24 7 -3
11 -10 10 -16 -2 -6 2 -11 7 -11 14 0 13 13 -2 28 -13 13 -31 16 -41 5z"/>
<path d="M685 690 c21 -22 41 -40 44 -40 3 0 -13 18 -34 40 -21 22 -41 40 -44
40 -3 0 13 -18 34 -40z"/>
<path d="M1300 687 c-25 -23 -56 -50 -70 -60 -24 -17 -24 -17 8 0 28 15 124
103 112 103 -3 0 -25 -20 -50 -43z"/>
<path d="M1110 710 c0 -5 5 -10 10 -10 6 0 10 5 10 10 0 6 -4 10 -10 10 -5 0
-10 -4 -10 -10z"/>
<path d="M554 679 c-14 -15 -16 -24 -8 -37 24 -37 85 -21 83 22 0 20 0 20 -9
-2 -11 -26 -33 -37 -55 -28 -21 8 -3 44 28 56 22 9 22 9 1 9 -11 1 -29 -8 -40
-20z"/>
<path d="M1364 679 c-4 -7 1 -16 11 -21 9 -6 25 -18 35 -28 17 -17 19 -18 34
-1 19 21 20 37 4 47 -8 5 -9 2 -5 -9 11 -29 -15 -31 -39 -4 -26 30 -30 32 -40
16z"/>
<path d="M650 643 c0 -5 -11 -20 -24 -35 -25 -26 -25 -26 -5 -44 16 -14 22
-15 32 -4 10 10 9 12 -5 7 -30 -10 -31 13 -3 43 17 17 23 30 16 34 -6 4 -11 3
-11 -1z"/>
<path d="M1277 600 c-21 -16 -33 -31 -27 -35 5 -3 10 -18 10 -33 l0 -26 -17
24 c-10 14 -17 28 -16 31 1 4 -19 -2 -46 -13 -47 -20 -48 -21 -35 -47 8 -14
14 -34 14 -43 0 -11 5 -15 14 -12 8 3 12 12 9 21 -4 9 1 19 10 25 10 5 17 16
17 25 0 13 7 10 30 -12 25 -24 30 -26 36 -12 3 10 3 24 0 33 -7 17 2 64 13 64
3 0 15 -13 25 -29 18 -26 46 -32 46 -9 0 5 -4 7 -9 4 -5 -3 -16 5 -25 19 -20
30 -20 35 0 35 8 0 12 5 9 10 -9 14 -15 12 -58 -20z m-87 -86 c0 -9 -5 -14
-12 -12 -18 6 -21 28 -4 28 9 0 16 -7 16 -16z"/>
<path d="M685 576 c-10 -18 -15 -41 -12 -50 9 -24 44 -19 62 8 11 16 22 22 35
19 18 -5 18 -7 5 -34 -18 -34 -19 -49 -3 -49 6 0 9 3 5 6 -3 4 0 19 8 34 11
21 20 27 36 23 20 -6 21 -20 3 -67 -3 -9 -2 -16 3 -16 5 0 13 17 19 38 l10 39
-56 25 -57 25 -12 -29 c-8 -17 -20 -28 -32 -28 -24 0 -24 15 1 50 11 16 16 31
12 34 -5 3 -17 -10 -27 -28z"/>
<path d="M1150 590 c-8 -5 -10 -10 -5 -10 6 0 17 5 25 10 8 5 11 10 5 10 -5 0
-17 -5 -25 -10z"/>
<path d="M928 563 c6 -2 18 -2 25 0 6 3 1 5 -13 5 -14 0 -19 -2 -12 -5z"/>
<path d="M1053 563 c9 -2 23 -2 30 0 6 3 -1 5 -18 5 -16 0 -22 -2 -12 -5z"/>
<path d="M875 496 c-31 -47 20 -89 59 -50 19 18 20 28 6 55 -15 26 -46 24 -65
-5z m50 -21 c0 -23 -5 -31 -22 -33 -24 -4 -30 17 -17 53 11 27 39 13 39 -20z"/>
<path d="M1059 504 c-11 -14 -10 -18 6 -30 10 -8 22 -14 27 -14 4 0 8 -5 8
-11 0 -6 -9 -9 -20 -6 -11 3 -20 1 -20 -4 0 -14 36 -11 49 4 12 15 -3 37 -26
37 -7 0 -13 7 -13 16 0 11 6 15 20 11 11 -3 20 -1 20 4 0 15 -37 10 -51 -7z"/>
<path d="M965 465 c0 -25 3 -45 8 -45 4 0 7 14 7 32 l0 32 24 -32 c23 -32 24
-32 30 -10 8 33 7 68 -3 68 -4 0 -6 -11 -3 -25 2 -14 1 -25 -3 -25 -4 0 -16
11 -27 25 -27 35 -33 32 -33 -20z"/>
</g>
</svg>
